<?xml version="1.0" encoding="UTF-8" standalone="no"?>
<!-- Created with Inkscape (http://www.inkscape.org/) -->
<svg
   xmlns:dc="http://purl.org/dc/elements/1.1/"
   xmlns:cc="http://creativecommons.org/ns#"
   xmlns:rdf="http://www.w3.org/1999/02/22-rdf-syntax-ns#"
   xmlns:svg="http://www.w3.org/2000/svg"
   xmlns="http://www.w3.org/2000/svg"
   xmlns:xlink="http://www.w3.org/1999/xlink"
   xmlns:sodipodi="http://sodipodi.sourceforge.net/DTD/sodipodi-0.dtd"
   xmlns:inkscape="http://www.inkscape.org/namespaces/inkscape"
   width="22"
   height="22"
   id="svg5624"
   sodipodi:version="0.32"
   inkscape:version="0.46"
   sodipodi:docname="gnome-do.svg"
   inkscape:output_extension="org.inkscape.output.svg.inkscape"
   version="1.0"
   inkscape:export-filename="/home/kalle/Projekt/Tango/GNOME Do/16/gnome-do.png"
   inkscape:export-xdpi="90"
   inkscape:export-ydpi="90">
  <defs
     id="defs5626">
    <filter
       inkscape:collect="always"
       id="filter6476"
       x="-0.047689243"
       width="1.0953785"
       y="-0.95378486"
       height="2.9075697">
      <feGaussianBlur
         inkscape:collect="always"
         stdDeviation="0.39741036"
         id="feGaussianBlur6478" />
    </filter>
    <linearGradient
       id="linearGradient6588"
       inkscape:collect="always">
      <stop
         id="stop6590"
         offset="0"
         style="stop-color:#5c3566;stop-opacity:1" />
      <stop
         id="stop6592"
         offset="1"
         style="stop-color:#75507b;stop-opacity:1" />
    </linearGradient>
    <linearGradient
       inkscape:collect="always"
       xlink:href="#linearGradient6588"
       id="linearGradient6876"
       gradientUnits="userSpaceOnUse"
       gradientTransform="matrix(1,0,0,1.1875,-1,2.65625)"
       x1="1.4375"
       y1="-19.31304"
       x2="1.4375"
       y2="-11.173204" />
    <linearGradient
       id="linearGradient6582"
       inkscape:collect="always">
      <stop
         id="stop6584"
         offset="0"
         style="stop-color:#ad7fa8;stop-opacity:1" />
      <stop
         id="stop6586"
         offset="1"
         style="stop-color:#75507b;stop-opacity:1" />
    </linearGradient>
    <linearGradient
       inkscape:collect="always"
       xlink:href="#linearGradient6582"
       id="linearGradient6874"
       gradientUnits="userSpaceOnUse"
       gradientTransform="matrix(1,0,0,1.1875,-1,-24.65625)"
       x1="9.9878836"
       y1="15.398542"
       x2="9.9878836"
       y2="2.1686835" />
    <radialGradient
       inkscape:collect="always"
       xlink:href="#linearGradient6270"
       id="radialGradient6871"
       gradientUnits="userSpaceOnUse"
       gradientTransform="matrix(-1.3078737,1.3100243,-0.9195229,-1.182842,48.06141,2.188251)"
       cx="18.772211"
       cy="12.918297"
       fx="18.772211"
       fy="12.918297"
       r="10" />
    <filter
       inkscape:collect="always"
       id="filter6463"
       x="-0.1443609"
       width="1.2887218"
       y="-0.1443609"
       height="1.2887218">
      <feGaussianBlur
         inkscape:collect="always"
         stdDeviation="0.84210526"
         id="feGaussianBlur6465" />
    </filter>
    <linearGradient
       id="linearGradient6594"
       inkscape:collect="always">
      <stop
         id="stop6596"
         offset="0"
         style="stop-color:#5c3566;stop-opacity:1" />
      <stop
         id="stop6598"
         offset="1"
         style="stop-color:#5c3566;stop-opacity:0" />
    </linearGradient>
    <linearGradient
       inkscape:collect="always"
       xlink:href="#linearGradient6594"
       id="linearGradient6792"
       gradientUnits="userSpaceOnUse"
       x1="11.03125"
       y1="-20.780273"
       x2="11.03125"
       y2="-23.252304" />
    <filter
       inkscape:collect="always"
       id="filter6566">
      <feGaussianBlur
         inkscape:collect="always"
         stdDeviation="0.55263158"
         id="feGaussianBlur6568" />
    </filter>
    <linearGradient
       inkscape:collect="always"
       xlink:href="#linearGradient6260"
       id="linearGradient6864"
       gradientUnits="userSpaceOnUse"
       gradientTransform="matrix(1,0,0,1.2142858,-1,2.964287)"
       x1="2"
       y1="-3.5397046"
       x2="6.2881355"
       y2="-19.50246" />
    <linearGradient
       id="linearGradient6600"
       inkscape:collect="always">
      <stop
         id="stop6602"
         offset="0"
         style="stop-color:#5c3566;stop-opacity:1" />
      <stop
         id="stop6604"
         offset="1"
         style="stop-color:#75507b;stop-opacity:1" />
    </linearGradient>
    <linearGradient
       inkscape:collect="always"
       xlink:href="#linearGradient6600"
       id="linearGradient6861"
       gradientUnits="userSpaceOnUse"
       gradientTransform="matrix(0.7142856,0,0,0.8125,-0.5714277,1.3437516)"
       x1="1.4375"
       y1="-19.31304"
       x2="1.4375"
       y2="-11.173204" />
    <linearGradient
       id="linearGradient6612"
       inkscape:collect="always">
      <stop
         id="stop6614"
         offset="0"
         style="stop-color:#ad7fa8;stop-opacity:1" />
      <stop
         id="stop6616"
         offset="1"
         style="stop-color:#75507b;stop-opacity:1" />
    </linearGradient>
    <linearGradient
       inkscape:collect="always"
       xlink:href="#linearGradient6612"
       id="linearGradient6859"
       gradientUnits="userSpaceOnUse"
       gradientTransform="matrix(0.7142856,0,0,0.8125,-0.5714277,-17.343748)"
       x1="9.9878836"
       y1="15.398542"
       x2="9.9878836"
       y2="2.1686835" />
    <linearGradient
       inkscape:collect="always"
       id="linearGradient6270">
      <stop
         style="stop-color:#ffffff;stop-opacity:0.48582996"
         offset="0"
         id="stop6272" />
      <stop
         style="stop-color:#ffffff;stop-opacity:0;"
         offset="1"
         id="stop6274" />
    </linearGradient>
    <radialGradient
       inkscape:collect="always"
       xlink:href="#linearGradient6270"
       id="radialGradient6856"
       gradientUnits="userSpaceOnUse"
       gradientTransform="matrix(-0.9155117,0.8476628,-0.643666,-0.7653685,33.942982,1.4747484)"
       cx="18.772211"
       cy="12.918297"
       fx="18.772211"
       fy="12.918297"
       r="10" />
    <filter
       inkscape:collect="always"
       id="filter6433"
       x="-0.043548387"
       width="1.0870968"
       y="-0.21774194"
       height="1.4354839">
      <feGaussianBlur
         inkscape:collect="always"
         stdDeviation="0.36290323"
         id="feGaussianBlur6435" />
    </filter>
    <linearGradient
       id="linearGradient6618"
       inkscape:collect="always">
      <stop
         id="stop6620"
         offset="0"
         style="stop-color:#5c3566;stop-opacity:1" />
      <stop
         id="stop6622"
         offset="1"
         style="stop-color:#5c3566;stop-opacity:0" />
    </linearGradient>
    <linearGradient
       inkscape:collect="always"
       xlink:href="#linearGradient6618"
       id="linearGradient5746"
       gradientUnits="userSpaceOnUse"
       x1="11.03125"
       y1="-20.780273"
       x2="11.03125"
       y2="-23.252304" />
    <linearGradient
       inkscape:collect="always"
       id="linearGradient6260">
      <stop
         style="stop-color:#ffffff;stop-opacity:1;"
         offset="0"
         id="stop6262" />
      <stop
         style="stop-color:#ffffff;stop-opacity:0;"
         offset="1"
         id="stop6264" />
    </linearGradient>
    <linearGradient
       inkscape:collect="always"
       xlink:href="#linearGradient6260"
       id="linearGradient6851"
       gradientUnits="userSpaceOnUse"
       gradientTransform="matrix(0.6842105,0,0,0.7871054,-0.2105277,1.0614516)"
       x1="1.7692319"
       y1="1.7274047"
       x2="7.9612131"
       y2="-19.135237" />
    <inkscape:perspective
       sodipodi:type="inkscape:persp3d"
       inkscape:vp_x="0 : 526.18109 : 1"
       inkscape:vp_y="0 : 1000 : 0"
       inkscape:vp_z="744.09448 : 526.18109 : 1"
       inkscape:persp3d-origin="372.04724 : 350.78739 : 1"
       id="perspective5632" />
  </defs>
  <sodipodi:namedview
     id="base"
     pagecolor="#ffffff"
     bordercolor="#adadad"
     borderopacity="1"
     gridtolerance="10000"
     guidetolerance="10"
     objecttolerance="10"
     inkscape:pageopacity="0.0"
     inkscape:pageshadow="2"
     inkscape:zoom="16"
     inkscape:cx="2.2506002"
     inkscape:cy="15.793236"
     inkscape:document-units="px"
     inkscape:current-layer="layer1"
     showgrid="false"
     inkscape:window-width="1280"
     inkscape:window-height="751"
     inkscape:window-x="0"
     inkscape:window-y="25"
     inkscape:snap-bbox="true"
     inkscape:snap-nodes="false"
     inkscape:showpageshadow="false">
    <inkscape:grid
       type="xygrid"
       id="grid5895"
       visible="true"
       enabled="true" />
  </sodipodi:namedview>
  <metadata
     id="metadata5629">
    <rdf:RDF>
      <cc:Work
         rdf:about="">
        <dc:format>image/svg+xml</dc:format>
        <dc:type
           rdf:resource="http://purl.org/dc/dcmitype/StillImage" />
      </cc:Work>
    </rdf:RDF>
  </metadata>
  <g
     inkscape:label="Layer 1"
     inkscape:groupmode="layer"
     id="layer1">
    <rect
       transform="matrix(1.1,0,0,3,-2.2,-45)"
       ry="0.35714284"
       rx="0.97402596"
       y="21"
       x="2"
       height="1"
       width="20"
       id="rect5670"
       style="opacity:0.26720653;fill:#000000;fill-opacity:1;fill-rule:nonzero;stroke:none;stroke-width:1;stroke-linecap:butt;stroke-linejoin:miter;marker:none;marker-start:none;marker-mid:none;marker-end:none;stroke-miterlimit:4;stroke-dasharray:none;stroke-dashoffset:0;stroke-opacity:1;visibility:visible;display:inline;overflow:visible;filter:url(#filter6476);enable-background:accumulate"
       inkscape:export-filename="/home/kalle/Projekt/Tango/GNOME Do/do-allsizes.png"
       inkscape:export-xdpi="90"
       inkscape:export-ydpi="90" />
    <rect
       ry="2.9275837"
       rx="2.9275837"
       y="-20.5"
       x="0.5"
       height="19"
       width="21"
       id="rect5672"
       style="fill:url(#linearGradient6874);fill-opacity:1;fill-rule:nonzero;stroke:url(#linearGradient6876);stroke-width:0.99999994;stroke-linecap:butt;stroke-linejoin:miter;marker:none;marker-start:none;marker-mid:none;marker-end:none;stroke-miterlimit:4;stroke-dasharray:none;stroke-dashoffset:0;stroke-opacity:1;visibility:visible;display:inline;overflow:visible;enable-background:accumulate"
       inkscape:export-filename="/home/kalle/Projekt/Tango/GNOME Do/do-allsizes.png"
       inkscape:export-xdpi="90"
       inkscape:export-ydpi="90"
       transform="scale(1,-1)" />
    <path
       sodipodi:nodetypes="cccc"
       id="path5674"
       d="M 21,3 C 9.36282,3 1,16.55326 1,20 L 1,3.131805 L 21,3 z"
       style="opacity:0.54655869;fill:url(#radialGradient6871);fill-opacity:1;fill-rule:evenodd;stroke:none;stroke-width:1px;stroke-linecap:butt;stroke-linejoin:miter;stroke-opacity:1;display:inline"
       inkscape:export-filename="/home/kalle/Projekt/Tango/GNOME Do/do-allsizes.png"
       inkscape:export-xdpi="90"
       inkscape:export-ydpi="90" />
    <path
       transform="matrix(0.8571429,0,0,0.8571429,0.71429,1.714286)"
       style="opacity:0.35114507;fill:#ffffff;fill-opacity:1;fill-rule:nonzero;stroke:none;stroke-width:1;stroke-linecap:butt;stroke-linejoin:miter;marker:none;marker-start:none;marker-mid:none;marker-end:none;stroke-miterlimit:4;stroke-dasharray:none;stroke-dashoffset:0;stroke-opacity:1;visibility:visible;display:inline;overflow:visible;filter:url(#filter6463);enable-background:accumulate"
       d="M 12,5 C 11.353667,5 10.833333,5.5203333 10.833333,6.1666667 L 10.833333,7.515625 C 10.412358,7.6242709 10.033003,7.8139852 9.6666667,8.0260417 L 8.6822917,7.0416667 C 8.4537778,6.8131533 8.1784305,6.7135417 7.8802083,6.7135417 C 7.5819862,6.7135417 7.2701793,6.8131534 7.0416667,7.0416667 C 6.5846402,7.4986934 6.584639,8.2252646 7.0416667,8.6822917 L 7.9895833,9.6302083 C 7.766463,10.000165 7.591295,10.404155 7.4791667,10.833333 L 6.1666667,10.833333 C 5.5203333,10.833333 5,11.353667 5,12 C 5,12.646333 5.5203333,13.166667 6.1666667,13.166667 L 7.4791667,13.166667 C 7.5910803,13.59304 7.7671443,14.000965 7.9895833,14.369792 L 7.0416667,15.317708 C 6.5846402,15.774735 6.5846402,16.501306 7.0416667,16.958333 C 7.4986932,17.41536 8.225264,17.415359 8.6822917,16.958333 L 9.6666667,15.973958 C 10.033003,16.186015 10.412358,16.375729 10.833333,16.484375 L 10.833333,17.833333 C 10.833333,18.479667 11.353667,19 12,19 C 12.646333,19 13.166667,18.479667 13.166667,17.833333 L 13.166667,16.484375 C 13.587642,16.375729 13.966997,16.186015 14.333333,15.973958 L 15.317708,16.958333 C 15.774735,17.41536 16.501308,17.415361 16.958333,16.958333 C 17.41536,16.501307 17.415362,15.774735 16.958333,15.317708 L 16.010417,14.369792 C 16.233537,13.999835 16.408705,13.595845 16.520833,13.166667 L 17.833333,13.166667 C 18.479667,13.166667 19,12.646333 19,12 C 19,11.353667 18.479667,10.833333 17.833333,10.833333 L 16.520833,10.833333 C 16.40892,10.40696 16.232856,9.9990348 16.010417,9.6302083 L 16.958333,8.6822917 C 17.41536,8.2252649 17.415359,7.4986932 16.958333,7.0416667 C 16.501307,6.5846399 15.774736,6.5846398 15.317708,7.0416667 L 14.333333,8.0260417 C 13.966997,7.8139852 13.587642,7.6242709 13.166667,7.515625 L 13.166667,6.1666667 C 13.166667,5.5203333 12.646333,5 12,5 z M 12,9.6666667 C 13.288,9.6666667 14.333333,10.712 14.333333,12 C 14.333333,13.288 13.288,14.333333 12,14.333333 C 10.712,14.333333 9.6666667,13.288 9.6666667,12 C 9.6666667,10.712 10.712,9.6666667 12,9.6666667 z"
       id="path5676"
       inkscape:export-filename="/home/kalle/Projekt/Tango/GNOME Do/do-allsizes.png"
       inkscape:export-xdpi="90"
       inkscape:export-ydpi="90" />
    <path
       sodipodi:type="inkscape:offset"
       inkscape:radius="-0.9375"
       inkscape:original="M 2 -24 L 2 -21.875 C 2 -20.839254 2.84749 -20 3.90625 -20 L 20.09375 -20 C 21.15251 -20 22 -20.839254 22 -21.875 L 22 -24 L 2 -24 z "
       style="fill:url(#linearGradient6792);fill-opacity:1;fill-rule:nonzero;stroke:none;stroke-width:1;stroke-linecap:butt;stroke-linejoin:miter;marker:none;marker-start:none;marker-mid:none;marker-end:none;stroke-miterlimit:4;stroke-dashoffset:0;stroke-opacity:1;visibility:visible;display:inline;overflow:visible;filter:url(#filter6433);enable-background:accumulate"
       id="path5678"
       d="M 2.9375,-23.0625 L 2.9375,-21.875 C 2.9375,-21.350655 3.3429127,-20.9375 3.90625,-20.9375 L 20.09375,-20.9375 C 20.657087,-20.9375 21.0625,-21.350655 21.0625,-21.875 L 21.0625,-23.0625 L 2.9375,-23.0625 z"
       transform="matrix(0.9931034,0,0,1.8823529,-0.91724,59.41176)"
       inkscape:export-filename="/home/kalle/Projekt/Tango/GNOME Do/do-allsizes.png"
       inkscape:export-xdpi="90"
       inkscape:export-ydpi="90" />
    <g
       style="display:inline"
       transform="translate(-1,-1)"
       id="g5680"
       inkscape:export-filename="/home/kalle/Projekt/Tango/GNOME Do/do-allsizes.png"
       inkscape:export-xdpi="90"
       inkscape:export-ydpi="90">
      <path
         sodipodi:type="inkscape:offset"
         inkscape:radius="1.0004882"
         inkscape:original="M 12 6 C 11.446 6 11 6.446 11 7 L 11 8.15625 C 10.639164 8.2493751 10.314003 8.4119873 10 8.59375 L 9.15625 7.75 C 8.960381 7.5541314 8.724369 7.46875 8.46875 7.46875 C 8.213131 7.46875 7.945868 7.5541315 7.75 7.75 C 7.358263 8.1417372 7.358262 8.7645125 7.75 9.15625 L 8.5625 9.96875 C 8.371254 10.285856 8.22111 10.632133 8.125 11 L 7 11 C 6.446 11 6 11.446 6 12 C 6 12.554 6.446 13 7 13 L 8.125 13 C 8.220926 13.365463 8.371838 13.715113 8.5625 14.03125 L 7.75 14.84375 C 7.358263 15.235487 7.358263 15.858262 7.75 16.25 C 8.141737 16.641737 8.764512 16.641736 9.15625 16.25 L 10 15.40625 C 10.314003 15.588013 10.639164 15.750625 11 15.84375 L 11 17 C 11 17.554 11.446 18 12 18 C 12.554 18 13 17.554 13 17 L 13 15.84375 C 13.360836 15.750625 13.685997 15.588013 14 15.40625 L 14.84375 16.25 C 15.235487 16.641737 15.858264 16.641738 16.25 16.25 C 16.641737 15.858263 16.641739 15.235487 16.25 14.84375 L 15.4375 14.03125 C 15.628746 13.714144 15.77889 13.367867 15.875 13 L 17 13 C 17.554 13 18 12.554 18 12 C 18 11.446 17.554 11 17 11 L 15.875 11 C 15.779074 10.634537 15.628162 10.284887 15.4375 9.96875 L 16.25 9.15625 C 16.641737 8.7645128 16.641736 8.141737 16.25 7.75 C 15.858263 7.3582628 15.235488 7.3582627 14.84375 7.75 L 14 8.59375 C 13.685997 8.4119873 13.360836 8.2493751 13 8.15625 L 13 7 C 13 6.446 12.554 6 12 6 z M 12 10 C 13.104 10 14 10.896 14 12 C 14 13.104 13.104 14 12 14 C 10.896 14 10 13.104 10 12 C 10 10.896 10.896 10 12 10 z "
         style="opacity:0.30916036;fill:#5c3566;fill-opacity:1;fill-rule:nonzero;stroke:none;stroke-width:1;stroke-linecap:butt;stroke-linejoin:miter;marker:none;marker-start:none;marker-mid:none;marker-end:none;stroke-miterlimit:4;stroke-dasharray:none;stroke-dashoffset:0;stroke-opacity:1;visibility:visible;display:inline;overflow:visible;filter:url(#filter6566);enable-background:accumulate"
         id="path5682"
         d="M 12,5 C 10.909035,5 10,5.9090352 10,7 L 10,7.15625 L 9.875,7.03125 C 9.4977787,6.6540294 8.9471565,6.46875 8.46875,6.46875 C 7.9903432,6.46875 7.4460961,6.6164028 7.03125,7.03125 C 6.2646164,7.797884 6.2646142,9.1083652 7.03125,9.875 L 7.15625,10 L 7,10 C 5.9090352,10 5,10.909035 5,12 C 5,13.090965 5.9090352,14 7,14 L 7.15625,14 L 7.03125,14.125 C 6.2646157,14.891634 6.2646172,16.202115 7.03125,16.96875 C 7.7978849,17.735385 9.1083653,17.735381 9.875,16.96875 L 10,16.84375 L 10,17 C 10,18.090965 10.909035,19 12,19 C 13.090965,19 14,18.090965 14,17 L 14,16.84375 L 14.125,16.96875 C 14.891635,17.735385 16.202115,17.735389 16.96875,16.96875 C 17.735384,16.202116 17.735389,14.891635 16.96875,14.125 L 16.84375,14 L 17,14 C 18.090965,14 19,13.090965 19,12 C 19,10.909035 18.090965,10 17,10 L 16.84375,10 L 16.96875,9.875 C 17.735385,9.1083645 17.735383,7.7978846 16.96875,7.03125 C 16.202116,6.2646155 14.891635,6.2646167 14.125,7.03125 L 14,7.15625 L 14,7 C 14,5.9090352 13.090965,5 12,5 z M 12,11 C 12.562673,11 13,11.437327 13,12 C 13,12.562673 12.562673,13 12,13 C 11.437327,13 11,12.562673 11,12 C 11,11.437327 11.437327,11 12,11 z" />
    </g>
    <rect
       style="opacity:0.6259537;fill:none;fill-opacity:1;fill-rule:nonzero;stroke:url(#linearGradient6864);stroke-width:1;stroke-linecap:butt;stroke-linejoin:miter;marker:none;marker-start:none;marker-mid:none;marker-end:none;stroke-miterlimit:4;stroke-dasharray:none;stroke-dashoffset:0;stroke-opacity:1;visibility:visible;display:inline;overflow:visible;enable-background:accumulate"
       id="rect5684"
       width="19"
       height="17"
       x="1.5"
       y="-19.5"
       rx="1.9111185"
       ry="1.9111185"
       inkscape:export-filename="/home/kalle/Projekt/Tango/GNOME Do/do-allsizes.png"
       inkscape:export-xdpi="90"
       inkscape:export-ydpi="90"
       transform="scale(1,-1)" />
    <g
       style="display:inline"
       transform="matrix(1.0769231,0,0,1.0769231,63.23077,-32.615385)"
       id="g5714"
       inkscape:export-filename="/home/kalle/Projekt/Tango/GNOME Do/do-allsizes.png"
       inkscape:export-xdpi="90"
       inkscape:export-ydpi="90">
      <path
         sodipodi:nodetypes="cccccssccccszcccsccccsccccsccccsccccscccccczssc"
         id="path5716"
         d="M -48.492126,34.024707 C -49.090738,34.024707 -49.489537,33.878016 -49.489537,34.476753 L -49.489537,36.362875 C -49.879431,36.46352 -50.31909,36.634066 -50.658378,36.830508 L -51.905142,35.677011 C -52.116785,35.465326 -52.174398,35.520972 -52.450602,35.520972 C -52.726805,35.520972 -52.849998,35.679931 -53.089568,35.910828 C -53.630952,36.432613 -53.775714,36.630094 -53.423527,36.975526 L -52.201248,38.311348 C -52.407895,38.654059 -52.58052,39.129622 -52.68437,39.527194 L -54.554516,39.527194 C -55.153129,39.527194 -54.975298,39.910487 -54.975298,40.509224 C -54.975298,41.107962 -55.121959,41.52243 -54.523346,41.52243 L -52.68437,41.52243 C -52.58072,41.917406 -52.407265,42.365436 -52.201248,42.707102 L -53.416844,44.000887 C -53.891746,44.488794 -53.55872,44.768875 -53.105153,45.154384 C -52.648996,45.542094 -52.382972,45.87392 -51.959688,45.450552 L -50.658378,44.187941 C -50.319091,44.384381 -49.832677,44.554929 -49.442784,44.655575 L -49.489537,46.463758 C -49.489536,47.062494 -49.090738,46.993741 -48.492126,46.993741 C -47.893515,46.993741 -47.463546,47.09367 -47.463546,46.494933 L -47.47913,44.655575 C -47.089235,44.554929 -46.665164,44.384381 -46.325875,44.187941 L -45.016771,45.419376 C -44.581756,45.901417 -44.240351,45.659887 -43.816762,45.201148 C -43.401306,44.751218 -43.037989,44.517786 -43.520655,44.094414 L -44.783004,42.707102 C -44.576358,42.364387 -44.403732,41.920004 -44.299882,41.52243 L -42.569998,41.52243 C -41.971385,41.52243 -42.008953,41.107962 -42.008953,40.509224 C -42.008953,39.910487 -41.893462,39.527194 -42.492074,39.527194 L -44.299882,39.527194 C -44.403532,39.132218 -44.576988,38.653013 -44.783004,38.311348 L -43.277229,36.908447 C -42.853948,36.485077 -43.356429,36.372675 -43.746632,35.918623 C -44.16311,35.433994 -44.470906,35.023105 -44.907679,35.567897 L -46.325875,36.830508 C -46.665165,36.634066 -47.104821,36.447931 -47.494715,36.347287 L -47.494715,34.445577 C -47.494714,33.84684 -47.893515,34.024707 -48.492126,34.024707 z M -48.492126,38.66689 C -47.390985,38.66689 -46.618955,39.364327 -46.618955,40.509224 C -46.618955,41.66863 -47.390984,42.363835 -48.492126,42.363835 C -49.593269,42.363835 -50.34409,41.498266 -50.34409,40.509224 C -50.34409,39.392944 -49.593269,38.66689 -48.492126,38.66689 z"
         style="fill:#ffffff;fill-opacity:1;fill-rule:nonzero;stroke:none;stroke-width:1;stroke-linecap:butt;stroke-linejoin:miter;marker:none;marker-start:none;marker-mid:none;marker-end:none;stroke-miterlimit:4;stroke-dasharray:none;stroke-dashoffset:0;stroke-opacity:1;visibility:visible;display:inline;overflow:visible;enable-background:accumulate" />
    </g>
  </g>
</svg>
